<svg width="127" height="30" viewBox="0 0 127 30" fill="none" xmlns="http://www.w3.org/2000/svg">
<path d="M7.63 19V17.544H2.954V9.088H1.274V19H7.63ZM13.3698 18.006C12.1938 18.006 11.2978 17.166 11.1158 15.906H17.1078C17.1218 15.752 17.1358 15.542 17.1358 15.374C17.1358 13.176 15.5678 11.608 13.3558 11.608C11.1438 11.608 9.54778 13.176 9.54778 15.36C9.54778 17.642 11.1578 19.28 13.3978 19.28C14.9378 19.28 16.3518 18.44 16.7718 17.278L15.4558 16.844C15.1338 17.502 14.2798 18.006 13.3698 18.006ZM11.1158 14.786C11.3258 13.652 12.1658 12.882 13.3138 12.882C14.4898 12.882 15.3858 13.666 15.5538 14.786H11.1158ZM25.3915 12.952C24.7895 12.112 23.8515 11.608 22.7455 11.608C20.6595 11.608 19.1755 13.218 19.1755 15.444C19.1755 17.67 20.6595 19.28 22.7455 19.28C23.8515 19.28 24.7895 18.776 25.3915 17.936V19H26.9175V11.888H25.3915V12.952ZM23.0395 17.936C21.6815 17.936 20.6875 16.872 20.6875 15.444C20.6875 14.002 21.6815 12.952 23.0395 12.952C24.3975 12.952 25.3775 14.002 25.3775 15.444C25.3775 16.886 24.3975 17.936 23.0395 17.936ZM33.0334 11.636C32.2214 11.636 31.5354 12.07 31.1014 12.798V11.888H29.6314V19H31.1574V15.108C31.1574 13.848 31.8154 12.938 32.8374 12.938C33.1174 12.938 33.5514 13.008 33.9294 13.176V11.818C33.6354 11.706 33.3134 11.636 33.0334 11.636ZM39.8406 11.608C38.9166 11.608 38.0346 12.056 37.5306 12.798V11.888H36.0326V19H37.5586V14.912C37.5586 13.778 38.4406 12.952 39.5046 12.952C40.5686 12.952 41.1986 13.722 41.1986 14.772V19H42.7106V14.66C42.7106 12.896 41.5766 11.608 39.8406 11.608ZM50.3115 19H51.8375V14.828C51.8375 13.708 52.5095 12.952 53.5175 12.952C54.4975 12.952 55.1415 13.708 55.1415 14.828V19H56.6535V14.828C56.6535 13.736 57.3675 12.952 58.3615 12.952C59.3275 12.98 60.0135 13.75 60.0135 14.828V19H61.5255V14.702C61.5255 12.896 60.3495 11.622 58.6835 11.622C57.6615 11.622 56.7655 12.14 56.2755 12.952C55.8555 12.14 54.9175 11.608 53.8255 11.608C52.9715 11.608 52.2295 12.014 51.7815 12.7V11.888H50.3115V19ZM71.4735 15.444C71.4735 13.19 69.8775 11.608 67.6095 11.608C65.3275 11.608 63.7455 13.19 63.7455 15.444C63.7455 17.698 65.3275 19.28 67.6095 19.28C69.8775 19.28 71.4735 17.698 71.4735 15.444ZM69.9615 15.444C69.9615 16.886 68.9675 17.936 67.6095 17.936C66.2375 17.936 65.2575 16.886 65.2575 15.444C65.2575 14.002 66.2375 12.952 67.6095 12.952C68.9675 12.952 69.9615 14.002 69.9615 15.444ZM77.2483 11.636C76.4363 11.636 75.7503 12.07 75.3163 12.798V11.888H73.8463V19H75.3723V15.108C75.3723 13.848 76.0303 12.938 77.0523 12.938C77.3323 12.938 77.7663 13.008 78.1443 13.176V11.818C77.8503 11.706 77.5283 11.636 77.2483 11.636ZM83.3096 18.006C82.1336 18.006 81.2376 17.166 81.0556 15.906H87.0476C87.0616 15.752 87.0756 15.542 87.0756 15.374C87.0756 13.176 85.5076 11.608 83.2956 11.608C81.0836 11.608 79.4876 13.176 79.4876 15.36C79.4876 17.642 81.0976 19.28 83.3376 19.28C84.8776 19.28 86.2916 18.44 86.7116 17.278L85.3956 16.844C85.0736 17.502 84.2196 18.006 83.3096 18.006ZM81.0556 14.786C81.2656 13.652 82.1056 12.882 83.2536 12.882C84.4296 12.882 85.3256 13.666 85.4936 14.786H81.0556Z" fill="#4A99D3"/>
<path d="M115 7L113.59 8.41L119.17 14H107V16H119.17L113.59 21.59L115 23L123 15L115 7Z" fill="#4A99D3"/>
</svg>
